<?xml version="1.0" standalone="no"?>
<!DOCTYPE svg PUBLIC "-//W3C//DTD SVG 20010904//EN"
 "http://www.w3.org/TR/2001/REC-SVG-20010904/DTD/svg10.dtd">
<svg version="1.0" xmlns="http://www.w3.org/2000/svg"
 width="1000.000000pt" height="1000.000000pt" viewBox="0 0 1000.000000 1000.000000"
 preserveAspectRatio="xMidYMid meet">
<metadata>
Created by potrace 1.11, written by Peter Selinger 2001-2013
</metadata>
<g transform="translate(0.000000,1000.000000) scale(0.100000,-0.100000)"
fill="#000000" stroke="none">
<path d="M4985 7530 c0 -1361 1 -1918 2 -1237 2 680 2 1794 0 2475 -1 680 -2
123 -2 -1238z"/>
<path d="M5025 7530 c0 -1361 1 -1918 2 -1237 2 680 2 1794 0 2475 -1 680 -2
123 -2 -1238z"/>
<path d="M1666 8464 c-14 -14 -16 -110 -16 -914 0 -804 2 -900 16 -914 13 -14
50 -16 247 -16 128 0 238 4 245 8 7 5 181 314 387 688 l375 679 0 -672 c0
-597 2 -673 16 -687 13 -13 44 -16 178 -16 113 0 166 4 174 12 17 17 17 1819
0 1836 -18 18 -482 17 -500 -2 -7 -7 -179 -315 -383 -685 l-370 -671 -3 672
c-1 475 -5 675 -13 685 -18 21 -332 19 -353 -3z"/>
<path d="M6516 8464 c-14 -14 -16 -110 -16 -914 0 -804 2 -900 16 -914 13 -13
43 -16 168 -16 106 0 157 4 169 13 16 11 17 64 19 652 l3 640 234 -647 c137
-380 240 -649 248 -652 19 -8 297 -8 315 -1 8 3 119 289 254 654 l239 647 3
-640 c2 -589 3 -642 19 -653 12 -9 63 -13 169 -13 125 0 155 3 168 16 14 14
16 110 16 914 0 804 -2 900 -16 914 -13 14 -50 16 -253 16 -174 0 -242 -3
-254 -12 -9 -7 -122 -299 -256 -662 -131 -356 -241 -644 -244 -639 -3 5 -110
297 -237 649 -131 365 -237 644 -247 652 -12 9 -81 12 -259 12 -207 0 -245 -2
-258 -16z"/>
<path d="M1243 5043 c687 -2 1807 -2 2490 0 683 1 122 2 -1248 2 -1369 0
-1928 -1 -1242 -2z"/>
<path d="M6268 5043 c683 -2 1801 -2 2485 0 683 1 124 2 -1243 2 -1367 0
-1926 -1 -1242 -2z"/>
<path d="M1243 5003 c687 -2 1807 -2 2490 0 683 1 122 2 -1248 2 -1369 0
-1928 -1 -1242 -2z"/>
<path d="M6268 5003 c683 -2 1801 -2 2485 0 683 1 124 2 -1243 2 -1367 0
-1926 -1 -1242 -2z"/>
<path d="M4985 2510 c0 -1367 1 -1926 2 -1243 2 684 2 1802 0 2485 -1 684 -2
125 -2 -1242z"/>
<path d="M5010 2510 c0 -1647 3 -2480 10 -2480 7 0 10 833 10 2480 0 1647 -3
2480 -10 2480 -7 0 -10 -833 -10 -2480z"/>
<path d="M1689 3409 c-19 -19 -20 -30 -17 -164 2 -101 7 -148 16 -157 10 -10
82 -14 302 -16 l290 -3 0 -734 c0 -654 2 -735 16 -749 13 -13 43 -16 170 -16
88 0 164 4 175 10 19 10 19 29 19 750 l0 740 285 0 c272 0 286 1 305 20 18 18
20 33 20 164 0 118 -3 147 -16 160 -14 14 -98 16 -780 16 -760 0 -764 0 -785
-21z"/>
<path d="M6654 3137 c-2 -7 -3 -91 -2 -187 l3 -175 890 -3 c490 -1 895 0 900
2 6 2 9 72 7 190 l-3 186 -895 0 c-719 0 -896 -3 -900 -13z"/>
<path d="M6654 2327 c-2 -7 -3 -94 -2 -192 l3 -180 900 0 900 0 0 190 0 190
-898 3 c-725 2 -899 0 -903 -11z"/>
<path d="M2723 3 c428 -2 1126 -2 1550 0 425 1 75 2 -778 2 -852 0 -1200 -1
-772 -2z"/>
</g>
</svg>
